<svg width="145" height="64" viewBox="0 0 145 64" fill="none" xmlns="http://www.w3.org/2000/svg">
<path d="M127.597 27.9471L122.939 35.1859L122.475 27.9471H118.583H117.374H115.781C116.406 25.8299 116.89 24.1159 116.89 24.1159L117.152 23.269H112.01L111.768 24.1159L110.659 27.9471H106.284C105.558 27.9471 105.195 27.9471 105.195 27.9471C100.698 27.9471 98.1777 29.2375 97.1292 31.6572C96.5243 29.4392 94.528 27.9471 91.443 27.9471C88.7813 27.9471 86.4222 28.9351 84.6679 30.5079C83.7605 28.9351 81.966 27.9471 79.4656 27.9471C76.6024 27.9471 74.1222 29.0964 72.3075 30.8506C71.4808 29.0964 69.6055 27.9471 66.9237 27.9471C65.9962 27.9471 65.1292 28.068 64.3024 28.2898L64.7057 26.8985C64.7057 26.8784 64.7259 26.8582 64.7259 26.838L65.7542 23.269H60.6326L57.3661 34.5205C57.2854 34.7423 57.2048 34.9641 57.1443 35.206C57.0031 35.7303 56.9023 36.2344 56.862 36.7183C56.4386 39.8639 57.8097 42.223 61.6207 42.3844C61.9634 42.4247 62.3264 42.4448 62.7297 42.4448C65.4316 42.4448 67.9521 41.2955 69.8072 39.5413C70.5936 41.2955 72.4285 42.4448 75.2716 42.4448C77.792 42.4448 80.1714 41.4568 81.966 39.884C82.833 41.4568 84.6074 42.4448 87.2489 42.4448C92.9754 42.4448 97.2501 42.4448 100.073 42.4448C104.045 42.4448 106.284 41.6585 107.453 39.9647C107.453 41.598 108.381 42.4448 110.72 42.4448C112.615 42.4448 115.156 42.0214 118.644 41.1745L113.583 48.3932H118.704L132.718 27.9471H127.597ZM67.4077 35.1859C66.9237 36.8393 65.3913 38.1701 63.9798 38.1701C62.5684 38.1701 61.8021 36.8393 62.2861 35.1859C62.77 33.5324 64.3024 32.2016 65.7139 32.2016C67.1254 32.2016 67.8916 33.5324 67.4077 35.1859ZM79.9294 35.1859C79.4455 36.8393 77.913 38.1701 76.5016 38.1701C75.0901 38.1701 74.3239 36.8393 74.8078 35.1859C75.2917 33.5324 76.8242 32.2016 78.2357 32.2016C79.6471 32.2016 80.4133 33.5324 79.9294 35.1859ZM86.8053 35.1859C87.2892 33.5324 88.8217 32.2016 90.2331 32.2016C91.6446 32.2016 92.4108 33.5324 91.9269 35.1859C91.4631 36.8191 89.9508 38.1298 88.5595 38.1701C88.5192 38.1701 88.4789 38.1701 88.4386 38.1701C87.0674 38.1298 86.3415 36.8191 86.8053 35.1859ZM103.279 37.6459C103.017 38.2508 101.001 38.15 100.497 38.1701C100.497 38.1701 99.1657 38.1701 95.5362 38.1701C96.2016 37.2627 96.7259 36.2546 97.0283 35.1859C97.0687 35.085 97.0888 34.9641 97.109 34.8632C97.6534 35.6295 98.7826 36.315 100.98 36.7586C103.077 37.1619 103.461 37.0409 103.279 37.6459ZM108.34 36.0126C107.897 34.3188 106.021 33.6333 103.38 33.3106C102.271 33.1695 101.646 33.1292 101.787 32.6452C101.888 32.2823 102.452 32.2016 103.642 32.2016C104.388 32.2016 105.275 32.2016 106.304 32.2016H109.449L108.34 36.0126ZM113.442 36.0327C113.442 35.9924 113.946 34.2987 114.551 32.2016H117.797L118.321 37.6257C112.978 38.775 112.857 38.4726 113.442 36.0327Z" fill="#242B2C"/>
<path fill-rule="evenodd" clip-rule="evenodd" d="M60.0695 22.519H66.7509L65.4566 27.0111C65.4468 27.0543 65.4349 27.0901 65.425 27.1165C65.4229 27.1222 65.4208 27.1275 65.4188 27.1327L65.3683 27.3068C65.8708 27.2347 66.3883 27.1971 66.9238 27.1971C69.4082 27.1971 71.3644 28.1197 72.4895 29.6859C74.3519 28.1631 76.7488 27.1971 79.4657 27.1971C81.7959 27.1971 83.6618 27.9994 84.8184 29.4106C86.6211 28.035 88.9072 27.1971 91.443 27.1971C94.1231 27.1971 96.1627 28.255 97.2354 30.0159C98.7344 28.1052 101.386 27.1971 105.195 27.1971H110.095L111.047 23.9099L111.048 23.9074L111.444 22.519H118.169L117.609 24.3288L117.526 24.6221C117.47 24.8164 117.39 25.0974 117.291 25.4446C117.154 25.9214 116.98 26.5233 116.783 27.1971H123.179L123.542 32.8631L127.188 27.1971H134.142L119.1 49.1432H112.141L116.907 42.3463C114.344 42.9059 112.328 43.1948 110.72 43.1948C109.486 43.1948 108.464 42.9765 107.743 42.4048C107.423 42.1507 107.188 41.8482 107.023 41.5111C105.518 42.7071 103.24 43.1948 100.073 43.1948H87.2489C84.8115 43.1948 82.9361 42.4007 81.8012 40.9827C79.9737 42.3534 77.6875 43.1948 75.2716 43.1948C72.6626 43.1948 70.7084 42.2801 69.6093 40.7079C67.7185 42.2259 65.3085 43.1948 62.7297 43.1948C62.3117 43.1948 61.9281 43.1744 61.561 43.1325C59.5193 43.0404 57.993 42.3505 57.0575 41.1257C56.1325 39.9147 55.8929 38.3205 56.1163 36.6369C56.1623 36.1029 56.2723 35.5611 56.4184 35.0174C56.487 34.7447 56.5763 34.4979 56.6528 34.2875L60.0695 22.519ZM61.1959 24.019L58.0795 34.7534L58.071 34.7768C57.9886 35.0032 57.9215 35.1895 57.8719 35.3879L57.8687 35.401C57.7351 35.8973 57.6449 36.355 57.6095 36.7806L57.6079 36.7995L57.6053 36.8184C57.4095 38.2734 57.6454 39.4243 58.2495 40.2152C58.8422 40.9911 59.8973 41.5607 61.6524 41.635L61.6805 41.6362L61.7083 41.6395C62.0184 41.676 62.3518 41.6948 62.7297 41.6948C65.2182 41.6948 67.5594 40.6347 69.2919 38.9963L70.0595 38.2705L70.4916 39.2345C71.1258 40.6492 72.6391 41.6948 75.2716 41.6948C77.5966 41.6948 79.8033 40.7822 81.4717 39.32L82.1728 38.7056L82.6228 39.522C83.3223 40.7907 84.7978 41.6948 87.2489 41.6948H100.073C104 41.6948 105.891 40.9067 106.836 39.5386L108.034 37.8034L107.615 36.2026C107.462 35.6198 107.068 35.1746 106.351 34.8194C105.612 34.4529 104.583 34.2132 103.289 34.0551L103.285 34.0546C103.215 34.0457 103.144 34.0369 103.072 34.0281C102.638 33.9744 102.198 33.9201 101.887 33.8212C101.705 33.7631 101.421 33.6489 101.223 33.3863C100.985 33.0726 100.986 32.7166 101.066 32.4393C101.235 31.8406 101.775 31.6349 102.147 31.5543C102.538 31.4697 103.052 31.4516 103.642 31.4516H110.449L108.302 38.8275L108.203 38.4489V39.9647C108.203 40.6356 108.387 41.0008 108.675 41.2297C109.003 41.4897 109.614 41.6948 110.72 41.6948C112.521 41.6948 114.989 41.29 118.467 40.4457L120.4 39.9764L115.025 47.6432H118.309L131.295 28.6971H128.006L122.336 37.5086L121.772 28.6971H114.777L115.061 27.7347C115.373 26.6783 115.65 25.7223 115.849 25.0305C115.948 24.6846 116.028 24.4048 116.083 24.2115L116.138 24.019H112.576L112.489 24.322L112.489 24.3245L111.223 28.6971H105.195C100.814 28.6971 98.6879 29.9465 97.8174 31.9554L97.1149 33.5766L97.7204 34.4288C98.1 34.9631 98.999 35.5931 101.126 36.0228C101.587 36.1115 101.963 36.1742 102.274 36.226C102.308 36.2316 102.341 36.2372 102.374 36.2426C102.687 36.295 102.973 36.3434 103.19 36.4055C103.372 36.4574 103.75 36.579 103.952 36.9527C104.153 37.3258 104.044 37.7053 103.998 37.8614L103.985 37.9036L103.967 37.9441C103.764 38.4122 103.305 38.6062 103.036 38.6935C102.723 38.7952 102.365 38.8461 102.045 38.8744C101.589 38.9146 101.045 38.9164 100.74 38.9174C100.639 38.9178 100.564 38.918 100.527 38.9195L100.512 38.9201H94.0562L94.9315 37.7266C95.5523 36.88 96.0322 35.9516 96.3067 34.9816L96.3174 34.9438L96.332 34.9073C96.3314 34.909 96.3363 34.8964 96.3449 34.8583C96.349 34.8407 96.3531 34.8208 96.3578 34.7966L96.3736 34.7162L96.7143 33.0128L96.726 33.0293L96.4056 31.8545C95.9079 30.0294 94.2643 28.6971 91.443 28.6971C88.9716 28.6971 86.7894 29.6132 85.1686 31.0663L84.4803 31.6834L84.0183 30.8827C83.2748 29.5938 81.7637 28.6971 79.4657 28.6971C76.8116 28.6971 74.5146 29.7603 72.8288 31.3899L72.0757 32.1179L71.6291 31.1704C70.9532 29.7361 69.3844 28.6971 66.9238 28.6971C66.063 28.6971 65.2613 28.8091 64.4968 29.0142L63.2117 29.359L63.9753 26.7245C63.9851 26.6817 63.9969 26.6462 64.0067 26.62C64.0087 26.6146 64.0108 26.6093 64.0128 26.6043L64.7577 24.019H61.1959ZM64.1445 33.6396C63.625 34.0914 63.2048 34.717 63.0059 35.3965C62.8068 36.0768 62.8897 36.6037 63.0738 36.9266C63.2445 37.226 63.5367 37.4201 63.9799 37.4201C64.4561 37.4201 65.0241 37.1891 65.5494 36.7322C66.0688 36.2803 66.489 35.6547 66.6879 34.9752C66.887 34.2949 66.8041 33.768 66.6201 33.4452C66.4494 33.1457 66.1571 32.9516 65.714 32.9516C65.2377 32.9516 64.6697 33.1826 64.1445 33.6396ZM63.16 32.5079C63.8748 31.886 64.7788 31.4516 65.714 31.4516C66.6823 31.4516 67.4789 31.9229 67.9232 32.7023C68.3541 33.4582 68.4124 34.4234 68.1275 35.3965C67.8425 36.3704 67.2545 37.237 66.5339 37.8639C65.8191 38.4857 64.9151 38.9201 63.9799 38.9201C63.0116 38.9201 62.2149 38.4488 61.7707 37.6695C61.3397 36.9135 61.2815 35.9483 61.5663 34.9752C61.8514 34.0013 62.4393 33.1347 63.16 32.5079ZM76.6662 33.6396C76.1467 34.0914 75.7265 34.717 75.5277 35.3965C75.3285 36.0768 75.4115 36.6037 75.5955 36.9266C75.7662 37.226 76.0584 37.4201 76.5016 37.4201C76.9779 37.4201 77.5459 37.1891 78.0711 36.7322C78.5906 36.2803 79.0108 35.6547 79.2097 34.9752C79.4088 34.2949 79.3258 33.768 79.1418 33.4452C78.9711 33.1457 78.6789 32.9516 78.2357 32.9516C77.7594 32.9516 77.1915 33.1826 76.6662 33.6396ZM75.6817 32.5079C76.3965 31.886 77.3005 31.4516 78.2357 31.4516C79.204 31.4516 80.0006 31.9229 80.4449 32.7023C80.8759 33.4582 80.9341 34.4234 80.6493 35.3965C80.3642 36.3704 79.7762 37.237 79.0556 37.8639C78.3408 38.4857 77.4368 38.9201 76.5016 38.9201C75.5333 38.9201 74.7367 38.4488 74.2924 37.6695C73.8615 36.9135 73.8032 35.9483 74.0881 34.9752C74.3731 34.0013 74.9611 33.1347 75.6817 32.5079ZM87.526 35.3937C87.3353 36.0676 87.4133 36.5904 87.5912 36.9143C87.7552 37.2127 88.0328 37.405 88.4508 37.4201H88.5475C89.0215 37.4033 89.5823 37.1641 90.0956 36.7124C90.6068 36.2624 91.0162 35.6474 91.2055 34.981L91.2071 34.9752C91.4062 34.2949 91.3233 33.768 91.1393 33.4452C90.9686 33.1457 90.6764 32.9516 90.2332 32.9516C89.7569 32.9516 89.1889 33.1826 88.6637 33.6396C88.145 34.0908 87.7252 34.7153 87.526 35.3937ZM87.6792 32.5079C88.394 31.886 89.298 31.4516 90.2332 31.4516C91.2015 31.4516 91.9981 31.9229 92.4424 32.7023C92.8729 33.4575 92.9315 34.4215 92.6476 35.3937C92.3727 36.3594 91.7945 37.2152 91.0866 37.8383C90.3835 38.4572 89.4966 38.8933 88.5813 38.9198L88.5705 38.9201H88.4276L88.4166 38.9198C87.4689 38.8919 86.7011 38.4093 86.2765 37.6364C85.8649 36.887 85.8119 35.9389 86.0839 34.981L86.0855 34.9752C86.3706 34.0013 86.9586 33.1347 87.6792 32.5079ZM105.579 32.9516C106.102 33.0902 106.585 33.2614 107.017 33.4754C107.416 33.673 107.778 33.9113 108.087 34.1978L108.45 32.9516H105.579ZM113.987 31.4516H118.478L119.132 38.2184L118.479 38.3589C117.143 38.6463 116.106 38.8492 115.316 38.9489C114.565 39.0437 113.897 39.0677 113.393 38.8765C113.109 38.7688 112.856 38.5863 112.683 38.3078C112.518 38.0423 112.466 37.7539 112.457 37.4993C112.44 37.0291 112.57 36.4546 112.707 35.879C112.709 35.8729 112.71 35.8678 112.71 35.8641C112.714 35.8477 112.718 35.8324 112.721 35.8217C112.726 35.799 112.734 35.7718 112.742 35.7432C112.758 35.6848 112.781 35.6039 112.809 35.5048C112.866 35.3058 112.949 35.0232 113.049 34.6782L113.119 34.4392C113.313 33.7761 113.562 32.9247 113.83 31.9937L113.987 31.4516ZM115.115 32.9516C114.906 33.6725 114.714 34.3278 114.559 34.86L114.489 35.0987C114.388 35.4443 114.307 35.7238 114.251 35.9193C114.223 36.0174 114.201 36.0918 114.188 36.1419C114.185 36.1509 114.183 36.1586 114.181 36.1652L114.171 36.2075C114.018 36.8448 113.947 37.2147 113.956 37.4458C113.956 37.461 113.957 37.4739 113.958 37.4848C114.101 37.5246 114.434 37.5483 115.129 37.4607C115.724 37.3855 116.501 37.2418 117.51 37.031L117.116 32.9516H115.115ZM97.4662 36.2321C97.3062 36.6405 97.118 37.0371 96.9062 37.4201H100.482C100.483 37.4201 100.484 37.42 100.485 37.42C99.1703 37.1253 98.1831 36.7275 97.4662 36.2321ZM102.821 37.8614C102.832 37.8655 102.837 37.8679 102.837 37.8681C102.836 37.8682 102.83 37.8662 102.821 37.8614Z" fill="white"/>
<path d="M17.6434 33.0485L24.237 10.2836H34.3391L32.3025 17.3409C32.2823 17.3812 32.2622 17.4216 32.242 17.4619L26.8784 36.0933H31.8791C29.782 41.3157 28.1488 45.409 26.9793 48.373C17.7442 48.2722 15.1632 41.6585 17.4216 33.8349M26.9994 48.3932L39.1784 30.8708H34.0164L38.513 19.6396C46.2155 20.4461 49.845 26.5155 47.7077 33.8551C45.4292 41.7391 36.174 48.3932 27.1809 48.3932C27.1204 48.3932 27.0599 48.3932 26.9994 48.3932Z" fill="url(#paint0_linear_15_1076)"/>
<path fill-rule="evenodd" clip-rule="evenodd" d="M23.6733 9.53357H35.336L33.004 17.6149L32.9436 17.7356L27.8748 35.3433H32.9884L32.575 36.3727C31.6359 38.7114 30.79 40.8233 30.0371 42.7086L37.7437 31.6208H32.9082L38.0273 18.8346L38.591 18.8937C42.6306 19.3167 45.6884 21.1353 47.4342 23.8967C49.1751 26.6504 49.5432 30.2336 48.4279 34.0641C47.2311 38.2045 44.2236 41.9689 40.397 44.6918C36.5673 47.4169 31.8561 49.1432 27.1808 49.1432H25.5647L25.6223 49.0604C21.5546 48.7192 18.7617 47.0251 17.2399 44.3733C15.5822 41.4848 15.7638 36.8555 16.9229 32.8399L18.3637 33.2572C17.2645 37.0651 17.1639 41.2273 18.5409 43.6267C19.838 45.887 22.3497 47.4484 26.474 47.6103C27.5473 44.8945 28.9793 41.3054 30.7698 36.8433H25.882L31.5403 17.1882L31.6009 17.0669L33.342 11.0336H24.8005L18.3637 33.2572L16.9229 32.8399L23.6733 9.53357ZM28.4664 47.5967C32.3654 47.3164 36.2699 45.7875 39.5274 43.4696C43.1461 40.8946 45.9053 37.3902 46.9871 33.6469L46.9875 33.6454C48.0094 30.1365 47.6313 27.0155 46.1663 24.6982C44.7815 22.5078 42.3644 20.9383 38.9944 20.4548L35.1245 30.1208H40.613L28.4664 47.5967Z" fill="white"/>
<defs>
<linearGradient id="paint0_linear_15_1076" x1="37.9688" y1="15.2356" x2="24.965" y2="59.582" gradientUnits="userSpaceOnUse">
<stop stop-color="#EF7829"/>
<stop offset="0.0518954" stop-color="#F07529"/>
<stop offset="0.3551" stop-color="#F0672B"/>
<stop offset="0.6673" stop-color="#F15E2C"/>
<stop offset="1" stop-color="#F15A2C"/>
</linearGradient>
</defs>
</svg>
