<svg width="145" height="27" viewBox="0 0 145 27" fill="none" xmlns="http://www.w3.org/2000/svg">
<g clip-path="url(#clip0_2062_1046)">
<path d="M23.2232 0C25.8052 0.429428 28.3188 1.18928 30.6998 2.26074C34.8018 8.15612 36.84 14.8057 36.0875 22.4775C33.3159 24.4919 30.2119 26.0219 26.9117 27C26.1686 26.0198 25.5117 24.9792 24.9478 23.8896C26.0218 23.4951 27.0582 23.0084 28.0455 22.4355C27.7891 22.2647 27.5356 22.0739 27.2877 21.875C24.4199 23.2007 21.2898 23.8886 18.1207 23.8887C14.9514 23.8887 11.8207 23.2007 8.95273 21.875C8.70765 22.0599 8.45424 22.2507 8.19492 22.4355C9.18047 23.0076 10.2155 23.4931 11.2877 23.8867C10.7232 24.9767 10.0662 26.0185 9.32382 27C6.02639 26.0179 2.92407 24.4872 0.152925 22.4746C-0.488408 15.8592 0.794113 9.1482 5.52597 2.2666C7.90952 1.19486 10.4256 0.433054 13.0094 0C13.3625 0.62094 13.6825 1.26009 13.9674 1.91406C16.7177 1.50671 19.5149 1.50667 22.2652 1.91406C22.55 1.26 22.8699 0.620889 23.2232 0ZM95.1451 7.39941C97.1405 7.39941 98.7969 7.81196 100.114 8.63574V12.2305C99.6129 11.8994 99.0653 11.642 98.4889 11.4658C97.8436 11.2656 97.1704 11.1656 96.4937 11.1709C95.2566 11.1709 94.2878 11.3933 93.5885 11.8379C93.2742 12.0104 93.0122 12.262 92.8287 12.5664C92.6452 12.8708 92.5464 13.2175 92.5435 13.5713C92.5407 13.9252 92.6336 14.2737 92.8121 14.5811C92.9906 14.8883 93.2487 15.1439 93.5602 15.3213C94.2385 15.7714 95.2231 15.9961 96.5133 15.9961C97.1792 15.9977 97.842 15.9031 98.4801 15.7158C99.0621 15.5518 99.6217 15.3178 100.145 15.0186V18.4932C98.6029 19.377 96.842 19.8245 95.0572 19.7871C93.6267 19.8255 92.2058 19.542 90.9039 18.958C89.8371 18.4762 88.9375 17.6961 88.318 16.7158C87.7402 15.7547 87.4438 14.6553 87.4625 13.5391C87.4453 12.4233 87.7577 11.3262 88.3609 10.3809C89.0039 9.41607 89.9192 8.65647 90.9947 8.19531C92.3024 7.63522 93.7191 7.36347 95.1451 7.39941ZM80.1637 7.40625C81.1987 7.39673 82.231 7.51488 83.2359 7.75879C84.0477 7.94784 84.8274 8.25202 85.5504 8.66113V11.7432C84.8724 11.3566 84.1435 11.0635 83.3844 10.8721C82.5617 10.6553 81.7136 10.5458 80.8619 10.5469C79.6115 10.5469 78.9859 10.7564 78.9859 11.1748C78.9839 11.2679 79.0095 11.3598 79.0602 11.4385C79.1108 11.5172 79.1845 11.5792 79.2711 11.6172C79.6127 11.76 79.971 11.8617 80.3375 11.9199L82.3326 12.2734C83.6286 12.4976 84.5954 12.8898 85.232 13.4502C85.8684 14.0106 86.1872 14.8307 86.1891 15.9102C86.1992 16.4779 86.0584 17.0387 85.7799 17.5361C85.5013 18.0335 85.0945 18.4508 84.6012 18.7461C83.5503 19.4389 82.0497 19.7841 80.1002 19.7822C78.9792 19.7839 77.8624 19.6462 76.7769 19.3711C75.7503 19.1182 74.7683 18.714 73.8639 18.1738V14.918C74.6535 15.4825 75.5423 15.8989 76.4859 16.1455C77.5183 16.4551 78.5912 16.6169 79.6705 16.625C80.0429 16.6445 80.4153 16.5807 80.7594 16.4395C81.0042 16.3162 81.1265 16.1595 81.1266 15.9971C81.1292 15.9063 81.113 15.8158 81.0787 15.7314C81.0444 15.6472 80.9929 15.5708 80.9273 15.5068C80.6996 15.3347 80.4323 15.2197 80.149 15.1729L77.7545 14.6436C76.3824 14.3297 75.4084 13.8956 74.8326 13.3408C74.5436 13.0543 74.3187 12.7116 74.1715 12.335C74.0243 11.9582 73.9576 11.5554 73.9771 11.1523C73.9675 10.4218 74.2388 9.71403 74.7359 9.1709C75.3253 8.5582 76.069 8.10878 76.8912 7.86816C77.9493 7.54131 79.0548 7.3855 80.1637 7.40625ZM145 19.3896H140.111V16.8115C139.742 17.7293 139.079 18.5043 138.223 19.0195C137.278 19.5486 136.204 19.8129 135.117 19.7822C134.094 19.8056 133.086 19.5296 132.223 18.9893C131.387 18.4555 130.722 17.7003 130.302 16.8115C129.845 15.8304 129.617 14.7608 129.635 13.6816C129.603 12.5628 129.845 11.4525 130.341 10.4453C130.798 9.52274 131.511 8.74599 132.397 8.2041C133.308 7.66157 134.356 7.38231 135.421 7.39941C137.747 7.39941 139.311 8.39347 140.111 10.3809V5.26758H145V19.3896ZM105.071 8.19824C107.694 7.15214 110.629 7.15212 113.253 8.19824C114.316 8.65626 115.223 9.4059 115.866 10.3564C116.472 11.3002 116.785 12.3976 116.764 13.5137C116.778 14.6414 116.467 15.7501 115.866 16.7109C115.23 17.6911 114.32 18.4702 113.244 18.9531C111.954 19.4966 110.566 19.7764 109.163 19.7764C107.76 19.7763 106.372 19.4965 105.083 18.9531V18.958C104.004 18.4738 103.089 17.6962 102.446 16.7168C101.84 15.7578 101.525 14.6484 101.539 13.5195C101.519 12.4041 101.835 11.3076 102.446 10.3672C103.092 9.41272 104.003 8.65974 105.071 8.19824ZM71.6822 19.4512H66.8053V10.6191C67.5773 10.938 68.4064 11.1025 69.2437 11.1025C70.0812 11.1025 70.9102 10.9381 71.6822 10.6191V19.4512ZM56.483 5.66016C58.3587 5.66016 59.9458 5.9481 61.2437 6.52344C62.4388 7.01728 63.4532 7.85567 64.1539 8.92773C64.8097 9.98669 65.1464 11.2068 65.1236 12.4463C65.138 13.6917 64.7882 14.9155 64.1168 15.9717C63.3678 17.0872 62.2971 17.9575 61.0416 18.4707C59.6657 19.0871 57.9597 19.3944 55.9244 19.3926H48.7018V5.66016H56.483ZM126.941 7.6543C127.579 7.63718 128.21 7.80071 128.756 8.125V12.3672C128.161 12.018 127.475 11.8475 126.782 11.877C125.719 11.877 124.897 12.1968 124.327 12.8301C123.757 13.4633 123.472 14.4468 123.472 15.7803V19.3896H118.584V7.91504H123.372V11.5576C123.638 10.2239 124.068 9.24066 124.661 8.60742C124.948 8.29603 125.301 8.04923 125.695 7.88477C126.088 7.72043 126.514 7.64163 126.941 7.6543ZM12.0943 11.2812C10.2614 11.2812 8.83554 12.8892 8.83554 14.8506C8.83555 16.812 10.3129 18.4062 12.1002 18.4062C13.9215 18.4061 15.3296 16.8119 15.3609 14.8506C15.3923 12.8893 13.9272 11.2813 12.0943 11.2812ZM24.1402 11.2812C22.3047 11.2815 20.8795 12.8894 20.8795 14.8506C20.8795 16.8118 22.3503 18.406 24.1402 18.4062C25.9617 18.4062 27.3677 16.812 27.399 14.8506C27.4304 12.8892 25.976 11.2812 24.1402 11.2812ZM109.15 11.0146C108.787 10.9959 108.424 11.0482 108.082 11.168C107.739 11.2877 107.424 11.4722 107.155 11.7119C106.909 11.9575 106.717 12.2511 106.591 12.5732C106.466 12.8954 106.411 13.2396 106.428 13.584C106.412 13.9317 106.468 14.2789 106.593 14.6045C106.718 14.9301 106.909 15.2278 107.155 15.4785C107.422 15.7231 107.736 15.9124 108.079 16.0352C108.421 16.1578 108.786 16.2111 109.15 16.1924C109.515 16.2132 109.88 16.161 110.223 16.0381C110.566 15.9153 110.88 15.7248 111.145 15.4785C111.392 15.2284 111.584 14.9311 111.71 14.6055C111.835 14.2797 111.892 13.9319 111.876 13.584C111.893 13.2393 111.836 12.8945 111.711 12.5723C111.585 12.2502 111.392 11.9569 111.145 11.7119C110.877 11.4705 110.563 11.2838 110.22 11.1641C109.878 11.0442 109.513 10.9937 109.15 11.0146ZM137.413 11.0762C136.691 11.0762 135.993 11.321 135.433 11.7686C135.188 12.0028 134.995 12.2853 134.868 12.5977C134.741 12.91 134.682 13.2449 134.695 13.5811C134.682 13.9204 134.742 14.2591 134.871 14.5742C134.999 14.8892 135.193 15.1745 135.441 15.4111C135.703 15.6504 136.011 15.8353 136.347 15.9561C136.683 16.0768 137.04 16.1309 137.397 16.1143C137.761 16.134 138.125 16.0817 138.467 15.9609C138.81 15.8402 139.124 15.6533 139.392 15.4111C139.641 15.1701 139.837 14.8799 139.966 14.5605C140.095 14.2413 140.155 13.8989 140.142 13.5557C140.153 13.2226 140.092 12.891 139.962 12.583C139.833 12.2749 139.638 11.9976 139.392 11.7686C138.833 11.321 138.134 11.0762 137.413 11.0762ZM53.69 15.8984H55.8453C57.1088 15.8984 58.08 15.5888 58.7584 14.9688C59.1024 14.6408 59.371 14.244 59.5465 13.8057C59.722 13.3674 59.8003 12.8971 59.776 12.4268C59.7971 11.9902 59.7277 11.5539 59.5719 11.1445C59.416 10.7351 59.1773 10.3607 58.8697 10.0449C58.2617 9.45096 57.3464 9.15329 56.1246 9.15137H53.69V15.8984ZM69.2447 4.83301C70.5908 4.83301 71.6822 5.79687 71.6822 6.98535C71.682 8.17364 70.5906 9.13672 69.2447 9.13672C67.899 9.13656 66.8085 8.17354 66.8082 6.98535C66.8082 5.79697 67.8988 4.83316 69.2447 4.83301Z" fill="#5865F2"/>
</g>
<defs>
<clipPath id="clip0_2062_1046">
<rect width="145" height="27" fill="white"/>
</clipPath>
</defs>
</svg>
